<svg version="1.1" viewBox="0.0 0.0 567.9501312335958 562.5826771653543" fill="none" stroke="none" stroke-linecap="square" stroke-miterlimit="10" xmlns:xlink="http://www.w3.org/1999/xlink" xmlns="http://www.w3.org/2000/svg"><clipPath id="p.0"><path d="m0 0l567.95013 0l0 562.5827l-567.95013 0l0 -562.5827z" clip-rule="nonzero"/></clipPath><g clip-path="url(#p.0)"><path fill="#000000" fill-opacity="0.0" d="m0 0l567.95013 0l0 562.5827l-567.95013 0z" fill-rule="evenodd"/><path fill="#000000" d="m193.5748 92.56693l104.62991 0l0 104.62992l-104.62991 0z" fill-rule="evenodd"/><path stroke="#000000" stroke-width="1.0" stroke-linejoin="round" stroke-linecap="butt" d="m193.5748 92.56693l104.62991 0l0 104.62992l-104.62991 0z" fill-rule="evenodd"/><path fill="#ffd966" d="m76.614174 197.19685l338.55118 0l0 144.91338l-338.55118 0z" fill-rule="evenodd"/><path stroke="#ffd966" stroke-width="1.0" stroke-linejoin="round" stroke-linecap="butt" d="m76.614174 197.19685l338.55118 0l0 144.91338l-338.55118 0z" fill-rule="evenodd"/><path fill="#000000" d="m14.162729 406.063l0 0c0 -35.32013 28.632624 -63.95276 63.95276 -63.95276l0 0c16.961327 0 33.22796 6.737854 45.221428 18.731323c11.993469 11.993469 18.731323 28.260101 18.731323 45.221436l0 0c0 35.32013 -28.632622 63.95276 -63.95275 63.95276l0 0c-35.320133 0 -63.95276 -28.63263 -63.95276 -63.95276z" fill-rule="evenodd"/><path stroke="#000000" stroke-width="1.0" stroke-linejoin="round" stroke-linecap="butt" d="m14.162729 406.063l0 0c0 -35.32013 28.632624 -63.95276 63.95276 -63.95276l0 0c16.961327 0 33.22796 6.737854 45.221428 18.731323c11.993469 11.993469 18.731323 28.260101 18.731323 45.221436l0 0c0 35.32013 -28.632622 63.95276 -63.95275 63.95276l0 0c-35.320133 0 -63.95276 -28.63263 -63.95276 -63.95276z" fill-rule="evenodd"/><path fill="#000000" d="m349.71127 406.063l0 0c0 -35.32013 28.63263 -63.95276 63.95276 -63.95276l0 0c16.961334 0 33.227966 6.737854 45.221436 18.731323c11.993469 11.993469 18.731323 28.260101 18.731323 45.221436l0 0c0 35.32013 -28.63263 63.95276 -63.95276 63.95276l0 0c-35.32013 0 -63.95276 -28.63263 -63.95276 -63.95276z" fill-rule="evenodd"/><path stroke="#000000" stroke-width="1.0" stroke-linejoin="round" stroke-linecap="butt" d="m349.71127 406.063l0 0c0 -35.32013 28.63263 -63.95276 63.95276 -63.95276l0 0c16.961334 0 33.227966 6.737854 45.221436 18.731323c11.993469 11.993469 18.731323 28.260101 18.731323 45.221436l0 0c0 35.32013 -28.63263 63.95276 -63.95276 63.95276l0 0c-35.32013 0 -63.95276 -28.63263 -63.95276 -63.95276z" fill-rule="evenodd"/><path fill="#000000" d="m75.41732 342.11023l338.55118 0l0 127.90552l-338.55118 0z" fill-rule="evenodd"/><path stroke="#000000" stroke-width="1.0" stroke-linejoin="round" stroke-linecap="butt" d="m75.41732 342.11023l338.55118 0l0 127.90552l-338.55118 0z" fill-rule="evenodd"/><path fill="#bf9000" d="m316.57217 172.11548l60.81891 251.3281l177.09445 0l-6.580017 -39.07086l-139.07349 -1.3963318l-53.811035 -211.05511z" fill-rule="evenodd"/><path stroke="#bf9000" stroke-width="1.0" stroke-linejoin="round" stroke-linecap="butt" d="m316.57217 172.11548l60.81891 251.3281l177.09445 0l-6.580017 -39.07086l-139.07349 -1.3963318l-53.811035 -211.05511z" fill-rule="evenodd"/></g></svg>